<svg width="119" height="78" viewBox="0 0 119 78" fill="none" xmlns="http://www.w3.org/2000/svg">
<path d="M23.56 13.6V8H2.8V36H9.92V25.68H22.48V20.08H9.92V13.6H23.56ZM52.1406 8H45.0606V24.24C45.0606 28.04 42.7806 30.36 39.4206 30.36C36.0206 30.36 33.5806 28.04 33.5806 24.24V8H26.4606V24.24C26.4606 31.64 31.5006 36.32 39.3806 36.32C47.2206 36.32 52.1406 31.64 52.1406 24.24V8ZM83.0931 36V8H76.4531V25.28L63.5331 8H57.2531V36H63.9331V18.76L76.8131 36H83.0931ZM28.64 75V47H21.52V58.52H9.92V47H2.8V75H9.92V64.12H21.52V75H28.64ZM52.8453 69.84L54.8453 75H62.4453L50.6453 47H43.3253L31.2453 75H38.5653L40.6053 69.84H52.8453ZM50.7653 64.44H42.6853L46.7653 54.08L50.7653 64.44ZM89.4453 47H82.3653V63.24C82.3653 67.04 80.0853 69.36 76.7253 69.36C73.3253 69.36 70.8853 67.04 70.8853 63.24V47H63.7653V63.24C63.7653 70.64 68.8053 75.32 76.6853 75.32C84.5253 75.32 89.4453 70.64 89.4453 63.24V47Z" fill="#051473"/>
<mask id="path-2-outside-1_13_143" maskUnits="userSpaceOnUse" x="92" y="44" width="27" height="32" fill="black">
<rect fill="white" x="92" y="44" width="27" height="32"/>
<path d="M106.56 45.68C99.84 45.68 95.4 48.96 95.4 54.12C95.4 64.04 110.2 61.08 110.2 66.04C110.2 67.64 108.8 68.48 106.56 68.48C103.64 68.48 99.32 66.8 96.44 64.28L93.68 69.76C97 72.48 101.8 74.24 106.48 74.24C112.72 74.24 117.68 71.28 117.68 65.68C117.68 55.56 102.88 58.32 102.88 53.48C102.88 52.12 104.12 51.44 105.96 51.44C108.24 51.44 111.96 52.64 114.92 54.36L117.6 48.8C114.72 46.92 110.6 45.68 106.56 45.68Z"/>
</mask>
<path d="M96.44 64.28L97.0985 63.5274L96.1273 62.6777L95.5469 63.8302L96.44 64.28ZM93.68 69.76L92.7869 69.3102L92.4265 70.0258L93.0463 70.5335L93.68 69.76ZM114.92 54.36L114.418 55.2246L115.352 55.7674L115.821 54.7942L114.92 54.36ZM117.6 48.8L118.501 49.2342L118.882 48.4428L118.147 47.9626L117.6 48.8ZM106.56 44.68C103.05 44.68 100.029 45.5354 97.8593 47.1655C95.6627 48.8158 94.4 51.2195 94.4 54.12H96.4C96.4 51.8605 97.3573 50.0442 99.0607 48.7645C100.791 47.4646 103.35 46.68 106.56 46.68V44.68ZM94.4 54.12C94.4 56.8939 95.454 58.8446 97.0599 60.2277C98.6148 61.5669 100.637 62.33 102.51 62.8971C103.447 63.1808 104.404 63.4309 105.247 63.6672C106.11 63.9093 106.87 64.1409 107.505 64.4038C108.831 64.9535 109.2 65.4597 109.2 66.04H111.2C111.2 64.1403 109.719 63.1565 108.27 62.5562C107.517 62.2441 106.658 61.9857 105.787 61.7415C104.896 61.4916 104.003 61.2592 103.09 60.9829C101.263 60.43 99.5852 59.7631 98.3651 58.7123C97.196 57.7054 96.4 56.3061 96.4 54.12H94.4ZM109.2 66.04C109.2 66.4959 109.026 66.7932 108.675 67.0219C108.27 67.2853 107.578 67.48 106.56 67.48V69.48C107.782 69.48 108.91 69.2547 109.765 68.6981C110.674 68.1068 111.2 67.1841 111.2 66.04H109.2ZM106.56 67.48C105.269 67.48 103.59 67.1025 101.862 66.3988C100.142 65.6985 98.4417 64.7027 97.0985 63.5274L95.7815 65.0326C97.3183 66.3773 99.2179 67.4815 101.108 68.2512C102.99 69.0175 104.931 69.48 106.56 69.48V67.48ZM95.5469 63.8302L92.7869 69.3102L94.5731 70.2098L97.3331 64.7298L95.5469 63.8302ZM93.0463 70.5335C96.5477 73.4022 101.572 75.24 106.48 75.24V73.24C102.028 73.24 97.4523 71.5578 94.3137 68.9865L93.0463 70.5335ZM106.48 75.24C109.742 75.24 112.764 74.4685 115 72.8743C117.271 71.2556 118.68 68.8184 118.68 65.68H116.68C116.68 68.1416 115.609 69.9844 113.84 71.2457C112.036 72.5315 109.458 73.24 106.48 73.24V75.24ZM118.68 65.68C118.68 62.8641 117.633 60.8683 116.034 59.4394C114.482 58.0523 112.462 57.2461 110.584 56.6473C109.643 56.3472 108.69 56.0853 107.842 55.8386C106.977 55.5867 106.215 55.3487 105.578 55.0824C104.235 54.521 103.88 54.0225 103.88 53.48H101.88C101.88 55.3575 103.375 56.329 104.807 56.9276C105.557 57.2413 106.414 57.5058 107.283 57.7589C108.17 58.0172 109.067 58.2628 109.976 58.5527C111.798 59.1339 113.478 59.8377 114.701 60.9306C115.877 61.9817 116.68 63.4359 116.68 65.68H118.68ZM103.88 53.48C103.88 53.1626 103.997 52.9635 104.263 52.7962C104.582 52.5953 105.14 52.44 105.96 52.44V50.44C104.94 50.44 103.958 50.6247 103.197 51.1038C102.383 51.6165 101.88 52.4374 101.88 53.48H103.88ZM105.96 52.44C108 52.44 111.544 53.5546 114.418 55.2246L115.422 53.4954C112.376 51.7254 108.48 50.44 105.96 50.44V52.44ZM115.821 54.7942L118.501 49.2342L116.699 48.3658L114.019 53.9258L115.821 54.7942ZM118.147 47.9626C115.094 45.9697 110.781 44.68 106.56 44.68V46.68C110.419 46.68 114.346 47.8703 117.053 49.6374L118.147 47.9626Z" fill="#051473" mask="url(#path-2-outside-1_13_143)"/>
</svg>
