<svg width="119" height="78" viewBox="0 0 119 78" fill="none" xmlns="http://www.w3.org/2000/svg">
<mask id="path-1-outside-1_13_145" maskUnits="userSpaceOnUse" x="1" y="7" width="90" height="70" fill="black">
<rect fill="white" x="1" y="7" width="90" height="70"/>
<path d="M23.56 13.6V8H2.8V36H9.92V25.68H22.48V20.08H9.92V13.6H23.56ZM52.1406 8H45.0606V24.24C45.0606 28.04 42.7806 30.36 39.4206 30.36C36.0206 30.36 33.5806 28.04 33.5806 24.24V8H26.4606V24.24C26.4606 31.64 31.5006 36.32 39.3806 36.32C47.2206 36.32 52.1406 31.64 52.1406 24.24V8ZM83.0931 36V8H76.4531V25.28L63.5331 8H57.2531V36H63.9331V18.76L76.8131 36H83.0931ZM28.64 75V47H21.52V58.52H9.92V47H2.8V75H9.92V64.12H21.52V75H28.64ZM52.8453 69.84L54.8453 75H62.4453L50.6453 47H43.3253L31.2453 75H38.5653L40.6053 69.84H52.8453ZM50.7653 64.44H42.6853L46.7653 54.08L50.7653 64.44ZM89.4453 47H82.3653V63.24C82.3653 67.04 80.0853 69.36 76.7253 69.36C73.3253 69.36 70.8853 67.04 70.8853 63.24V47H63.7653V63.24C63.7653 70.64 68.8053 75.32 76.6853 75.32C84.5253 75.32 89.4453 70.64 89.4453 63.24V47Z"/>
</mask>
<path d="M23.56 13.6V8H2.8V36H9.92V25.68H22.48V20.08H9.92V13.6H23.56ZM52.1406 8H45.0606V24.24C45.0606 28.04 42.7806 30.36 39.4206 30.36C36.0206 30.36 33.5806 28.04 33.5806 24.24V8H26.4606V24.24C26.4606 31.64 31.5006 36.32 39.3806 36.32C47.2206 36.32 52.1406 31.64 52.1406 24.24V8ZM83.0931 36V8H76.4531V25.28L63.5331 8H57.2531V36H63.9331V18.76L76.8131 36H83.0931ZM28.64 75V47H21.52V58.52H9.92V47H2.8V75H9.92V64.12H21.52V75H28.64ZM52.8453 69.84L54.8453 75H62.4453L50.6453 47H43.3253L31.2453 75H38.5653L40.6053 69.84H52.8453ZM50.7653 64.44H42.6853L46.7653 54.08L50.7653 64.44ZM89.4453 47H82.3653V63.24C82.3653 67.04 80.0853 69.36 76.7253 69.36C73.3253 69.36 70.8853 67.04 70.8853 63.24V47H63.7653V63.24C63.7653 70.64 68.8053 75.32 76.6853 75.32C84.5253 75.32 89.4453 70.64 89.4453 63.24V47Z" fill="#FAEB8C"/>
<path d="M23.56 13.6V14.6H24.56V13.6H23.56ZM23.56 8H24.56V7H23.56V8ZM2.8 8V7H1.8V8H2.8ZM2.8 36H1.8V37H2.8V36ZM9.92 36V37H10.92V36H9.92ZM9.92 25.68V24.68H8.92V25.68H9.92ZM22.48 25.68V26.68H23.48V25.68H22.48ZM22.48 20.08H23.48V19.08H22.48V20.08ZM9.92 20.08H8.92V21.08H9.92V20.08ZM9.92 13.6V12.6H8.92V13.6H9.92ZM24.56 13.6V8H22.56V13.6H24.56ZM23.56 7H2.8V9H23.56V7ZM1.8 8V36H3.8V8H1.8ZM2.8 37H9.92V35H2.8V37ZM10.92 36V25.68H8.92V36H10.92ZM9.92 26.68H22.48V24.68H9.92V26.68ZM23.48 25.68V20.08H21.48V25.68H23.48ZM22.48 19.08H9.92V21.08H22.48V19.08ZM10.92 20.08V13.6H8.92V20.08H10.92ZM9.92 14.6H23.56V12.6H9.92V14.6ZM52.1406 8H53.1406V7H52.1406V8ZM45.0606 8V7H44.0606V8H45.0606ZM33.5806 8H34.5806V7H33.5806V8ZM26.4606 8V7H25.4606V8H26.4606ZM52.1406 7H45.0606V9H52.1406V7ZM44.0606 8V24.24H46.0606V8H44.0606ZM44.0606 24.24C44.0606 25.9405 43.5533 27.2075 42.7714 28.0407C41.9947 28.8685 40.8619 29.36 39.4206 29.36V31.36C41.3393 31.36 43.0266 30.6915 44.2298 29.4093C45.4279 28.1325 46.0606 26.3395 46.0606 24.24H44.0606ZM39.4206 29.36C37.9532 29.36 36.7626 28.8638 35.9395 28.0247C35.1163 27.1856 34.5806 25.9217 34.5806 24.24H32.5806C32.5806 26.3583 33.2649 28.1544 34.5118 29.4253C35.7586 30.6962 37.488 31.36 39.4206 31.36V29.36ZM34.5806 24.24V8H32.5806V24.24H34.5806ZM33.5806 7H26.4606V9H33.5806V7ZM25.4606 8V24.24H27.4606V8H25.4606ZM25.4606 24.24C25.4606 28.1764 26.8077 31.4758 29.2834 33.7861C31.7515 36.0893 35.2446 37.32 39.3806 37.32V35.32C35.6367 35.32 32.6697 34.2107 30.6479 32.3239C28.6336 30.4442 27.4606 27.7036 27.4606 24.24H25.4606ZM39.3806 37.32C43.4984 37.32 46.9545 36.0882 49.3886 33.7807C51.8285 31.4678 53.1406 28.1691 53.1406 24.24H51.1406C51.1406 27.7109 49.9927 30.4522 48.0127 32.3293C46.0267 34.2118 43.1028 35.32 39.3806 35.32V37.32ZM53.1406 24.24V8H51.1406V24.24H53.1406ZM83.0931 36V37H84.0931V36H83.0931ZM83.0931 8H84.0931V7H83.0931V8ZM76.4531 8V7H75.4531V8H76.4531ZM76.4531 25.28L75.6522 25.8788L77.4531 28.2874V25.28H76.4531ZM63.5331 8L64.334 7.40119L64.034 7H63.5331V8ZM57.2531 8V7H56.2531V8H57.2531ZM57.2531 36H56.2531V37H57.2531V36ZM63.9331 36V37H64.9331V36H63.9331ZM63.9331 18.76L64.7342 18.1615L62.9331 15.7507V18.76H63.9331ZM76.8131 36L76.012 36.5985L76.312 37H76.8131V36ZM84.0931 36V8H82.0931V36H84.0931ZM83.0931 7H76.4531V9H83.0931V7ZM75.4531 8V25.28H77.4531V8H75.4531ZM77.254 24.6812L64.334 7.40119L62.7322 8.59881L75.6522 25.8788L77.254 24.6812ZM63.5331 7H57.2531V9H63.5331V7ZM56.2531 8V36H58.2531V8H56.2531ZM57.2531 37H63.9331V35H57.2531V37ZM64.9331 36V18.76H62.9331V36H64.9331ZM63.132 19.3585L76.012 36.5985L77.6142 35.4015L64.7342 18.1615L63.132 19.3585ZM76.8131 37H83.0931V35H76.8131V37ZM28.64 75V76H29.64V75H28.64ZM28.64 47H29.64V46H28.64V47ZM21.52 47V46H20.52V47H21.52ZM21.52 58.52V59.52H22.52V58.52H21.52ZM9.92 58.52H8.92V59.52H9.92V58.52ZM9.92 47H10.92V46H9.92V47ZM2.8 47V46H1.8V47H2.8ZM2.8 75H1.8V76H2.8V75ZM9.92 75V76H10.92V75H9.92ZM9.92 64.12V63.12H8.92V64.12H9.92ZM21.52 64.12H22.52V63.12H21.52V64.12ZM21.52 75H20.52V76H21.52V75ZM29.64 75V47H27.64V75H29.64ZM28.64 46H21.52V48H28.64V46ZM20.52 47V58.52H22.52V47H20.52ZM21.52 57.52H9.92V59.52H21.52V57.52ZM10.92 58.52V47H8.92V58.52H10.92ZM9.92 46H2.8V48H9.92V46ZM1.8 47V75H3.8V47H1.8ZM2.8 76H9.92V74H2.8V76ZM10.92 75V64.12H8.92V75H10.92ZM9.92 65.12H21.52V63.12H9.92V65.12ZM20.52 64.12V75H22.52V64.12H20.52ZM21.52 76H28.64V74H21.52V76ZM52.8453 69.84L53.7777 69.4786L53.5302 68.84H52.8453V69.84ZM54.8453 75L53.9129 75.3614L54.1604 76H54.8453V75ZM62.4453 75V76H63.9519L63.3668 74.6116L62.4453 75ZM50.6453 47L51.5668 46.6116L51.3091 46H50.6453V47ZM43.3253 47V46H42.6676L42.4071 46.6039L43.3253 47ZM31.2453 75L30.3271 74.6039L29.7248 76H31.2453V75ZM38.5653 75V76H39.2453L39.4953 75.3677L38.5653 75ZM40.6053 69.84V68.84H39.9253L39.6754 69.4723L40.6053 69.84ZM50.7653 64.44V65.44H52.2234L51.6982 64.0798L50.7653 64.44ZM42.6853 64.44L41.7549 64.0736L41.2167 65.44H42.6853V64.44ZM46.7653 54.08L47.6982 53.7198L46.7745 51.3275L45.8349 53.7136L46.7653 54.08ZM51.9129 70.2014L53.9129 75.3614L55.7777 74.6386L53.7777 69.4786L51.9129 70.2014ZM54.8453 76H62.4453V74H54.8453V76ZM63.3668 74.6116L51.5668 46.6116L49.7238 47.3883L61.5238 75.3884L63.3668 74.6116ZM50.6453 46H43.3253V48H50.6453V46ZM42.4071 46.6039L30.3271 74.6039L32.1635 75.3961L44.2435 47.3961L42.4071 46.6039ZM31.2453 76H38.5653V74H31.2453V76ZM39.4953 75.3677L41.5353 70.2077L39.6754 69.4723L37.6354 74.6323L39.4953 75.3677ZM40.6053 70.84H52.8453V68.84H40.6053V70.84ZM50.7653 63.44H42.6853V65.44H50.7653V63.44ZM43.6158 64.8064L47.6958 54.4464L45.8349 53.7136L41.7549 64.0736L43.6158 64.8064ZM45.8324 54.4402L49.8324 64.8002L51.6982 64.0798L47.6982 53.7198L45.8324 54.4402ZM89.4453 47H90.4453V46H89.4453V47ZM82.3653 47V46H81.3653V47H82.3653ZM70.8853 47H71.8853V46H70.8853V47ZM63.7653 47V46H62.7653V47H63.7653ZM89.4453 46H82.3653V48H89.4453V46ZM81.3653 47V63.24H83.3653V47H81.3653ZM81.3653 63.24C81.3653 64.9405 80.858 66.2075 80.0761 67.0407C79.2994 67.8685 78.1666 68.36 76.7253 68.36V70.36C78.644 70.36 80.3313 69.6915 81.5345 68.4093C82.7326 67.1325 83.3653 65.3395 83.3653 63.24H81.3653ZM76.7253 68.36C75.2579 68.36 74.0673 67.8638 73.2442 67.0247C72.421 66.1856 71.8853 64.9217 71.8853 63.24H69.8853C69.8853 65.3583 70.5696 67.1544 71.8165 68.4253C73.0633 69.6962 74.7927 70.36 76.7253 70.36V68.36ZM71.8853 63.24V47H69.8853V63.24H71.8853ZM70.8853 46H63.7653V48H70.8853V46ZM62.7653 47V63.24H64.7653V47H62.7653ZM62.7653 63.24C62.7653 67.1764 64.1124 70.4758 66.5881 72.7861C69.0562 75.0893 72.5493 76.32 76.6853 76.32V74.32C72.9414 74.32 69.9744 73.2107 67.9526 71.3239C65.9383 69.4442 64.7653 66.7036 64.7653 63.24H62.7653ZM76.6853 76.32C80.8031 76.32 84.2592 75.0882 86.6933 72.7807C89.1332 70.4678 90.4453 67.1691 90.4453 63.24H88.4453C88.4453 66.7109 87.2974 69.4522 85.3173 71.3293C83.3314 73.2119 80.4075 74.32 76.6853 74.32V76.32ZM90.4453 63.24V47H88.4453V63.24H90.4453Z" fill="#FAEB8C" mask="url(#path-1-outside-1_13_145)"/>
<mask id="path-3-outside-2_13_145" maskUnits="userSpaceOnUse" x="92" y="44" width="27" height="32" fill="black">
<rect fill="white" x="92" y="44" width="27" height="32"/>
<path d="M106.56 45.68C99.84 45.68 95.4 48.96 95.4 54.12C95.4 64.04 110.2 61.08 110.2 66.04C110.2 67.64 108.8 68.48 106.56 68.48C103.64 68.48 99.32 66.8 96.44 64.28L93.68 69.76C97 72.48 101.8 74.24 106.48 74.24C112.72 74.24 117.68 71.28 117.68 65.68C117.68 55.56 102.88 58.32 102.88 53.48C102.88 52.12 104.12 51.44 105.96 51.44C108.24 51.44 111.96 52.64 114.92 54.36L117.6 48.8C114.72 46.92 110.6 45.68 106.56 45.68Z"/>
</mask>
<path d="M96.44 64.28L97.0985 63.5274L96.1273 62.6777L95.5469 63.8302L96.44 64.28ZM93.68 69.76L92.7869 69.3102L92.4265 70.0258L93.0463 70.5335L93.68 69.76ZM114.92 54.36L114.418 55.2246L115.352 55.7674L115.821 54.7942L114.92 54.36ZM117.6 48.8L118.501 49.2342L118.882 48.4428L118.147 47.9626L117.6 48.8ZM106.56 44.68C103.05 44.68 100.029 45.5354 97.8593 47.1655C95.6627 48.8158 94.4 51.2195 94.4 54.12H96.4C96.4 51.8605 97.3573 50.0442 99.0607 48.7645C100.791 47.4646 103.35 46.68 106.56 46.68V44.68ZM94.4 54.12C94.4 56.8939 95.454 58.8446 97.0599 60.2277C98.6148 61.5669 100.637 62.33 102.51 62.8971C103.447 63.1808 104.404 63.4309 105.247 63.6672C106.11 63.9093 106.87 64.1409 107.505 64.4038C108.831 64.9535 109.2 65.4597 109.2 66.04H111.2C111.2 64.1403 109.719 63.1565 108.27 62.5562C107.517 62.2441 106.658 61.9857 105.787 61.7415C104.896 61.4916 104.003 61.2592 103.09 60.9829C101.263 60.43 99.5852 59.7631 98.3651 58.7123C97.196 57.7054 96.4 56.3061 96.4 54.12H94.4ZM109.2 66.04C109.2 66.4959 109.026 66.7932 108.675 67.0219C108.27 67.2853 107.578 67.48 106.56 67.48V69.48C107.782 69.48 108.91 69.2547 109.765 68.6981C110.674 68.1068 111.2 67.1841 111.2 66.04H109.2ZM106.56 67.48C105.269 67.48 103.59 67.1025 101.862 66.3988C100.142 65.6985 98.4417 64.7027 97.0985 63.5274L95.7815 65.0326C97.3183 66.3773 99.2179 67.4815 101.108 68.2512C102.99 69.0175 104.931 69.48 106.56 69.48V67.48ZM95.5469 63.8302L92.7869 69.3102L94.5731 70.2098L97.3331 64.7298L95.5469 63.8302ZM93.0463 70.5335C96.5477 73.4022 101.572 75.24 106.48 75.24V73.24C102.028 73.24 97.4523 71.5578 94.3137 68.9865L93.0463 70.5335ZM106.48 75.24C109.742 75.24 112.764 74.4685 115 72.8743C117.271 71.2556 118.68 68.8184 118.68 65.68H116.68C116.68 68.1416 115.609 69.9844 113.84 71.2457C112.036 72.5315 109.458 73.24 106.48 73.24V75.24ZM118.68 65.68C118.68 62.8641 117.633 60.8683 116.034 59.4394C114.482 58.0523 112.462 57.2461 110.584 56.6473C109.643 56.3472 108.69 56.0853 107.842 55.8386C106.977 55.5867 106.215 55.3487 105.578 55.0824C104.235 54.521 103.88 54.0225 103.88 53.48H101.88C101.88 55.3575 103.375 56.329 104.807 56.9276C105.557 57.2413 106.414 57.5058 107.283 57.7589C108.17 58.0172 109.067 58.2628 109.976 58.5527C111.798 59.1339 113.478 59.8377 114.701 60.9306C115.877 61.9817 116.68 63.4359 116.68 65.68H118.68ZM103.88 53.48C103.88 53.1626 103.997 52.9635 104.263 52.7962C104.582 52.5953 105.14 52.44 105.96 52.44V50.44C104.94 50.44 103.958 50.6247 103.197 51.1038C102.383 51.6165 101.88 52.4374 101.88 53.48H103.88ZM105.96 52.44C108 52.44 111.544 53.5546 114.418 55.2246L115.422 53.4954C112.376 51.7254 108.48 50.44 105.96 50.44V52.44ZM115.821 54.7942L118.501 49.2342L116.699 48.3658L114.019 53.9258L115.821 54.7942ZM118.147 47.9626C115.094 45.9697 110.781 44.68 106.56 44.68V46.68C110.419 46.68 114.346 47.8703 117.053 49.6374L118.147 47.9626Z" fill="#FAEB8C" mask="url(#path-3-outside-2_13_145)"/>
</svg>
